<svg width="270" height="272" viewBox="0 0 270 272" fill="none" xmlns="http://www.w3.org/2000/svg">
    <style>
        path { stroke: #629272; }
    </style>
   <path d="M24 270C23.7861 268.075 22.0735 266.834 22 264.778C21.8681 261.083 21.2843 257.549 21.0556 253.889C19.7361 232.777 21.1513 211.408 25.0556 190.667C26.892 180.91 31.1215 170.521 36.4444 162.111C45.686 147.509 58.1771 131.816 71.1111 120.333C88.4811 104.913 112.296 98.6526 128.833 82.6667C130.652 80.9084 131.431 78 134 78" stroke="black" stroke-width="24" stroke-linecap="round"/>
    <path d="M42 154C42 157.683 47.7991 157.714 50.7778 158.778C61.3838 162.566 71.4686 167.825 82.6667 168C100.409 168.277 117.972 170 135.778 170C147.188 170 158.259 166.66 166.056 157.889C173.556 149.451 180.383 139.38 184.944 128.889C187.411 123.215 190.202 116.987 191.778 111C193.488 104.501 195.569 97.2514 198 91C204.541 74.1812 210.982 49.7614 226.667 38.9444C239.148 30.3366 252.955 22.009 268 19" stroke="black" stroke-width="24" stroke-linecap="round"/>
    <path d="M264 17C247.728 17 231.503 18 215.222 18C189.263 18 162.568 16.377 136.667 18.5C126.616 19.3238 113.479 18.6676 104.111 22.5C96.103 25.7761 87.87 29.5552 80.4444 34.0556C76.1278 36.6717 72.8766 40.0443 68.8889 42.9444C66.4976 44.6835 62.4467 45.6081 60.6111 48.0556C58.7418 50.5479 58.1496 54.5011 56.1111 57.3889C53.7627 60.7158 51.3667 64.0611 49.1111 67.4444C43.8416 75.3487 42.711 84.5116 40.2222 93.2222C37.6816 102.114 37 111.709 37 121C37 128.28 37.7363 135.101 38 142.222C38.1871 147.273 41 152.15 41 157" stroke="black" stroke-width="24" stroke-linecap="round"/>
</svg>