<svg width="251" height="257" viewBox="0 0 251 257" fill="none" xmlns="http://www.w3.org/2000/svg">
    <style>
        path { stroke: #629272; }
    </style>
    <path d="M5 255C4.78613 253.075 3.07345 251.834 3 249.778C2.86806 246.083 2.28433 242.549 2.05556 238.889C0.73609 217.777 2.15127 196.408 6.05556 175.667C7.89203 165.91 12.1215 155.521 17.4444 147.111C26.686 132.509 39.1771 116.816 52.1111 105.333C69.4811 89.913 93.2961 83.6526 109.833 67.6667C111.652 65.9084 112.431 63 115 63" stroke="black" stroke-width="24" stroke-linecap="round"/>
    <path d="M23 139C23 142.683 28.7991 142.714 31.7778 143.778C42.3838 147.566 52.4686 152.825 63.6667 153C81.4088 153.277 98.972 155 116.778 155C128.188 155 139.259 151.66 147.056 142.889C154.556 134.451 161.383 124.38 165.944 113.889C168.411 108.215 171.202 101.987 172.778 96C174.488 89.5009 176.569 82.2514 179 76C185.541 59.1812 191.982 34.7614 207.667 23.9444C220.148 15.3366 233.955 7.009 249 4" stroke="black" stroke-width="24" stroke-linecap="round"/>
    <path d="M245 2C228.728 2 212.503 3 196.222 3C170.263 3 143.568 1.37697 117.667 3.5C107.616 4.32382 94.4791 3.66763 85.1111 7.5C77.103 10.7761 68.87 14.5552 61.4444 19.0556C57.1278 21.6717 53.8766 25.0443 49.8889 27.9444C47.4976 29.6835 43.4467 30.6081 41.6111 33.0556C39.7418 35.5479 39.1496 39.5011 37.1111 42.3889C34.7627 45.7158 32.3667 49.0611 30.1111 52.4444C24.8416 60.3487 23.711 69.5116 21.2222 78.2222C18.6816 87.1145 18 96.7092 18 106C18 113.28 18.7363 120.101 19 127.222C19.1871 132.273 22 137.15 22 142" stroke="black" stroke-width="24" stroke-linecap="round"/>
</svg>
